# AST/ASF file generated using VICON BodyLanguage
# -----------------------------------------------
:version 1.10
:name VICON
:units
  mass 1.0
  length 0.45
  angle deg
:documentation
   .ast/.asf automatically generated from VICON data using
   VICON BodyBuilder and BodyLanguage model FoxedUp or BRILLIANT.MOD
:root
   order TX TY TZ RX RY RZ
   axis XYZ
   position 0 0 0  
   orientation 0 0 0 
:bonedata
  begin
     id 1 
     name lhipjoint
     direction 0.522423 -0.726805 0.445902 
     length 2.25074 
     axis 0 0 0  XYZ
  end
  begin
     id 2 
     name lfemur
     direction 0.34202 -0.939693 0  
     length 6.54609  
     axis 0 0 20  XYZ
    dof rx ry rz
    limits (-160.0 20.0)
           (-70.0 70.0)
           (-60.0 70.0)
  end
  begin
     id 3 
     name ltibia
     direction 0.34202 -0.939693 0   
     length 7.7528   
     axis 0 0 20   XYZ
    dof rx
    limits (-10.0 170.0)
  end
  begin
     id 4 
     name lfoot
     direction 0.143696 -0.394801 0.90746   
     length 1.73269   
     axis -90 7.62852e-016 20   XYZ
    dof rx rz
    limits (-45.0 90.0)
           (-70.0 20.0)
  end
  begin
     id 5 
     name ltoes
     direction 1.53633e-011 -4.21912e-011 1   
     length 0.858383   
     axis -90 7.62852e-016 20   XYZ
    dof rx
    limits (-90.0 20.0)
  end
  begin
     id 6 
     name rhipjoint
     direction -0.515943 -0.73016 0.447961   
     length 2.2404  
     axis 0 0 0  XYZ 
  end
  begin
     id 7 
     name rfemur
     direction -0.34202 -0.939693 0   
     length 6.84377   
     axis 0 0 -20   XYZ
    dof rx ry rz
    limits (-160.0 20.0)
           (-70.0 70.0)
           (-70.0 60.0)
  end
  begin
     id 8 
     name rtibia
     direction -0.34202 -0.939693 0   
     length 7.57596   
     axis 0 0 -20   XYZ
    dof rx
    limits (-10.0 170.0)
 end
 begin
     id 9 
     name rfoot
     direction -0.0999372 -0.274575 0.956358   
     length 1.78783  
     axis -90 -7.62852e-016 -20   XYZ
    dof rx rz
    limits (-45.0 90.0)
           (-20.0 70.0)
  end
  begin
     id 10 
     name rtoes
     direction -1.53535e-011 -4.21895e-011 1   
     length 0.898614   
     axis -90 -7.62852e-016 -20   XYZ
    dof rx
    limits (-90.0 20.0)
  end
  begin
     id 11 
     name lowerback
     direction -0.011775 0.996164 -0.0867116   
     length 1.91499   
     axis 0 0 0   XYZ
    dof rx ry rz
    limits (-20.0 45.0)
           (-30.0 30.0)
           (-30.0 30.0)
  end
  begin
     id 12 
     name upperback
     direction -0.00189771 0.999673 -0.0254833   
     length 1.92213   
     axis 0 0 0   XYZ
    dof rx ry rz
    limits (-20.0 45.0)
           (-30.0 30.0)
           (-30.0 30.0)
  end
  begin
     id 13 
     name thorax
     direction 0.00335995 0.999878 0.0152401   
     length 1.93138   
     axis 0 0 0   XYZ
    dof rx ry rz
    limits (-20.0 45.0)
           (-30.0 30.0)
           (-30.0 30.0)
  end
  begin
     id 14 
     name lowerneck
     direction 0.00233191 0.998509 0.0545404   
     length 1.59408   
     axis 0 0 0   XYZ
    dof rx ry rz
    limits (-20.0 45.0)
           (-30.0 30.0)
           (-30.0 30.0)
  end
  begin
     id 15 
     name upperneck
     direction 0.07881 0.9956 -0.0506934   
     length 1.59344   
     axis 0 0 0   XYZ
    dof rx ry rz
    limits (-20.0 45.0)
           (-30.0 30.0)
           (-30.0 30.0)
  end
  begin
     id 16
     name head
     direction 0.0261681 0.999378 -0.0236299  
     length 1.60935  
     axis 0 0 0   XYZ
    dof rx ry rz
    limits (-20.0 45.0)
           (-30.0 30.0)
           (-30.0 30.0)
  end
  begin
     id 17 
     name lclavicle
     direction 0.96643 0.252035 0.0499195  
     length 3.82153  
     axis 0 0 0   XYZ
    dof ry rz
    limits (-20.0 10.0)
           (0.0 20.0)
  end
  begin
     id 18 
     name lhumerus
     direction 1 -4.48967e-011 -2.01614e-018   
     length 4.87796   
     axis 180 -30 -90   XYZ
    dof rx ry rz
    limits (-60.0 90.0)
           (-90.0 90.0)
           (-90.0 90.0)
  end
  begin
     id 19
     name lradius
     direction 1 -4.48958e-011 3.1409e-027   
     length 3.23169   
     axis 180 -30 -90   XYZ
    dof rx
    limits (-10.0 170.0)
  end
  begin
     id 20
     name lwrist
     direction 1 -4.48924e-011 1.0365e-027   
     length 1.61584   
     axis -2.56395e-016 90 90   XYZ
    dof ry
    limits (-180.0 0.0)
 end
  begin
     id 21 
     name lhand
     direction 1 -4.49055e-011 2.09488e-027   
     length 0.731324   
     axis -1.32723e-015 90 90   XYZ
    dof rx rz
    limits (-90.0 90.0)
           (-45.0 45.0)
  end
  begin
     id 22 
     name lfingers
     direction 1 -4.48935e-011 4.14981e-027   
     length 0.589612   
     axis -2.6545e-015 90 90   XYZ
    dof rx
    limits (0.0 90.0)
  end
  begin
     id 23
     name lthumb
     direction 0.707107 -6.35097e-011 0.707107   
     length 0.846569   
     axis -90 45 5.05613e-014   XYZ
    dof rx rz
    limits (-45.0 45.0)
           (-45.0 45.0)
  end
  begin
     id 24 
     name rclavicle
     direction -0.979337 0.201016 0.0221522   
     length 3.73827  
     axis 0 0 0   XYZ 
    dof ry rz
    limits (-10.0 20.0)
           (-20.0 0.0)
  end
  begin
     id 25 
     name rhumerus
     direction -1 -4.48971e-011 1.65907e-027  
     length 4.9143   
     axis 180 30 90   XYZ
    dof rx ry rz
    limits (-90.0 60.0)
           (-90.0 90.0)
           (-90.0 90.0)
  end
  begin
     id 26 
     name rradius
     direction -1 -4.4894e-011 2.17871e-028   
     length 3.29093   
     axis 180 30 90   XYZ
    dof rx
    limits (-10.0 170.0)
  end
  begin
     id 27 
     name rwrist
     direction -1 -4.48971e-011 1.04038e-027   
     length 1.64546   
     axis -2.56395e-016 -90 -90   XYZ
    dof ry
    limits (-180.0 0.0)
  end
  begin
     id 28
     name rhand
     direction -1 -4.49017e-011 2.08843e-027   
     length 0.54512   
     axis -1.32723e-015 -90 -90   XYZ
    dof rx rz
    limits (-90.0 90.0)
           (-45.0 45.0)
  end
  begin
     id 29
     name rfingers
     direction -1 -4.48918e-011 4.1439e-027   
     length 0.43949   
     axis -2.6545e-015 -90 -90   XYZ
    dof rx
    limits (0.0 90.0)
  end
  begin
     id 30
     name rthumb
     direction -0.707107 -6.35065e-011 0.707107   
     length 0.631022   
     axis -90 -45 -5.05613e-014   XYZ
    dof rx rz
    limits (-45.0 45.0)
           (-45.0 45.0)
  end
:hierarchy
  begin
    root lhipjoint rhipjoint lowerback
    lhipjoint lfemur
    lfemur ltibia
    ltibia lfoot
    lfoot ltoes
    rhipjoint rfemur
    rfemur rtibia
    rtibia rfoot
    rfoot rtoes
    lowerback upperback
    upperback thorax
    thorax lowerneck lclavicle rclavicle
    lowerneck upperneck
    upperneck head
    lclavicle lhumerus
    lhumerus lradius
    lradius lwrist
    lwrist lhand lthumb
    lhand lfingers
    rclavicle rhumerus
    rhumerus rradius
    rradius rwrist
    rwrist rhand rthumb
    rhand rfingers
  end

#!OML:ASF H:\BreakDance\Project 1\Capture day 1\Session 1\Male.ASF
:FULLY-SPECIFIED
:DEGREES
32
root 9.17824 16.0274 -0.123753 -91.0744 -88.5292 91.1692
lowerback -7.50586 0.308948 -1.2952
upperback 4.14698 0.64175 -1.45921
thorax 8.6061 0.271907 -0.723327
lowerneck -4.07947 0.142422 -0.261722
upperneck 30.2644 -2.00103 3.34146
head 10.3448 -1.05607 0.957692
rclavicle 3.00662e-015 -3.18055e-015
rhumerus -29.1907 3.23881 -91.5651
rradius 60.7853
rwrist 12.0968
rhand -41.3657 -28.2412
rfingers 7.12502
rthumb -14.2841 -57.7299
lclavicle 3.00662e-015 -3.18055e-015
lhumerus -27.1476 -6.97005 88.5109
lradius 59.6394
lwrist -20.2796
lhand -33.0994 -38.5716
lfingers 7.12502
lthumb -6.31021 -8.68563
rfemur -16.4242 1.08909 8.65191
rtibia 43.4309
rfoot -22.9754 -19.222
rtoes -9.72817
lfemur -13.1114 2.88074 -9.98643
ltibia 36.4276
lfoot -27.0933 22.487
ltoes -34.6171
33
root 9.17876 16.0274 -0.123537 -90.8687 -88.5086 90.9639
lowerback -7.51137 0.297389 -1.32042
upperback 4.14494 0.629019 -1.45736
thorax 8.60681 0.264188 -0.709062
lowerneck -4.04351 0.143927 -0.28185
upperneck 30.2467 -1.9988 3.35302
head 10.3312 -1.05684 0.965583
rclavicle 2.06239e-015 5.56597e-015
rhumerus -29.2034 3.26522 -91.5615
rradius 60.7833
rwrist 12.0627
rhand -41.3181 -28.1831
rfingers 7.12502
rthumb -14.2382 -57.675
lclavicle 2.06239e-015 5.56597e-015
lhumerus -27.1562 -6.94678 88.5185
lradius 59.6305
lwrist -20.2914
lhand -33.1289 -38.5373
lfingers 7.12502
lthumb -6.33869 -8.65215
rfemur -16.4249 1.0891 8.62693
rtibia 43.4334
rfoot -22.9828 -19.2288
rtoes -9.76347
lfemur -13.1128 2.88894 -10.0103
ltibia 36.4197
lfoot -27.0751 22.498
ltoes -34.7312
34
root 9.17942 16.0275 -0.123475 -90.425 -88.488 90.5184
lowerback -7.51114 0.279803 -1.34838
upperback 4.14231 0.608293 -1.4548
thorax 8.60347 0.252404 -0.693691
lowerneck -4.01946 0.151698 -0.298542
upperneck 30.2391 -1.98608 3.35474
head 10.3235 -1.05333 0.970372
rclavicle 1.16786e-015 4.37326e-015
rhumerus -29.2142 3.30649 -91.5615
rradius 60.7688
rwrist 12.0098
rhand -41.3117 -27.9592
rfingers 7.12502
rthumb -14.232 -57.4516
lclavicle 1.16786e-015 4.37326e-015
lhumerus -27.1693 -6.91394 88.5214
lradius 59.6295
lwrist -20.2977
lhand -33.1494 -38.495
lfingers 7.12502
lthumb -6.3584 -8.6104
rfemur -16.4212 1.0904 8.60358
rtibia 43.4349
rfoot -22.9907 -19.2402
rtoes -9.83333
lfemur -13.1122 2.88975 -10.0333
ltibia 36.4114
lfoot -27.0638 22.4977
ltoes -34.7661
35
root 9.1802 16.0276 -0.123434 -89.881 -88.4674 89.9719
lowerback -7.50764 0.256897 -1.38039
upperback 4.14227 0.580568 -1.44907
thorax 8.60094 0.236854 -0.67376
lowerneck -4.03438 0.167553 -0.301261
upperneck 30.2593 -1.95788 3.3295
head 10.333 -1.0434 0.964574
rclavicle -4.37326e-015 -5.1684e-015
rhumerus -29.2201 3.36132 -91.5602
rradius 60.7555
rwrist 11.9645
rhand -41.3377 -27.7188
rfingers 7.12502
rthumb -14.257 -57.2094
lclavicle -4.37326e-015 -5.1684e-015
lhumerus -27.1701 -6.86823 88.5228
lradius 59.6255
lwrist -20.3004
lhand -33.1593 -38.4459
lfingers 7.12502
lthumb -6.36801 -8.56165
rfemur -16.4158 1.08817 8.58008
rtibia 43.4346
rfoot -22.9903 -19.2528
rtoes -9.93165
lfemur -13.1099 2.88592 -10.0563
ltibia 36.4035
lfoot -27.0574 22.4879
ltoes -34.7441
36
root 9.18109 16.0279 -0.123178 -89.3623 -88.4458 89.4527
lowerback -7.50496 0.229241 -1.41821
upperback 4.14607 0.546788 -1.43813
thorax 8.60298 0.217813 -0.645957
lowerneck -4.05635 0.186996 -0.315305
upperneck 30.2741 -1.92072 3.30052
head 10.3416 -1.03065 0.960296
rclavicle 1.98785e-016 -7.95139e-015
rhumerus -29.2177 3.43109 -91.5551
rradius 60.7514
rwrist 11.9537
rhand -41.3795 -27.619
rfingers 7.12502
rthumb -14.2973 -57.1068
lclavicle 1.98785e-016 -7.95139e-015
lhumerus -27.148 -6.80562 88.5263
lradius 59.61
lwrist -20.3019
lhand -33.1627 -38.3925
lfingers 7.12502
lthumb -6.37126 -8.50836
rfemur -16.4124 1.07324 8.55249
rtibia 43.4322
rfoot -22.9837 -19.25
rtoes -9.99998
lfemur -13.1094 2.87715 -10.0823
ltibia 36.3964
lfoot -27.054 22.4791
ltoes -34.7053
37
root 9.18214 16.0285 -0.122725 -89.0456 -88.423 89.1361
lowerback -7.50183 0.203845 -1.45774
upperback 4.15326 0.51618 -1.42656
thorax 8.60849 0.20015 -0.616091
lowerneck -4.10125 0.207767 -0.311562
upperneck 30.2992 -1.87929 3.25346
head 10.3583 -1.01541 0.946856
rclavicle 1.49089e-016 -1.03368e-014
rhumerus -29.208 3.49949 -91.5482
rradius 60.7564
rwrist 11.9784
rhand -41.4192 -27.6912
rfingers 7.12502
rthumb -14.3356 -57.1763
lclavicle 1.49089e-016 -1.03368e-014
lhumerus -27.11 -6.74389 88.5317
lradius 59.5863
lwrist -20.2989
lhand -33.1597 -38.3406
lfingers 7.12502
lthumb -6.36836 -8.45634
rfemur -16.4102 1.05283 8.52139
rtibia 43.4277
rfoot -22.9787 -19.2276
rtoes -9.99432
lfemur -13.1106 2.86525 -10.1119
ltibia 36.3913
lfoot -27.0512 22.4829
ltoes -34.6933
38
root 9.18319 16.0289 -0.122276 -89.1518 -88.406 89.2392
lowerback -7.49797 0.194724 -1.48182
upperback 4.16069 0.506142 -1.42156
thorax 8.61406 0.193598 -0.598811
lowerneck -4.11151 0.217569 -0.307469
upperneck 30.2931 -1.85762 3.22936
head 10.3572 -1.00708 0.939645
rclavicle -1.51573e-015 -1.19271e-014
rhumerus -29.2034 3.53124 -91.5413
rradius 60.7672
rwrist 12.0148
rhand -41.4448 -27.8282
rfingers 7.12502
rthumb -14.3602 -57.3115
lclavicle -1.51573e-015 -1.19271e-014
lhumerus -27.0754 -6.72269 88.5399
lradius 59.5631
lwrist -20.2883
lhand -33.1482 -38.285
lfingers 7.12502
lthumb -6.35727 -8.40043
rfemur -16.4076 1.04125 8.49733
rtibia 43.4214
rfoot -22.9778 -19.197
rtoes -9.92459
lfemur -13.1089 2.85527 -10.1353
ltibia 36.3891
lfoot -27.0528 22.4996
ltoes -34.7206
39
root 9.18406 16.0292 -0.121978 -89.6322 -88.4052 89.713
lowerback -7.49261 0.207667 -1.47196
upperback 4.16282 0.522637 -1.42685
thorax 8.61336 0.202337 -0.607526
lowerneck -4.09612 0.213067 -0.287402
upperneck 30.2785 -1.86406 3.22367
head 10.3487 -1.00848 0.933488
rclavicle -1.26725e-015 -1.70955e-014
rhumerus -29.2132 3.50681 -91.5394
rradius 60.7718
rwrist 12.0465
rhand -41.4584 -27.8848
rfingers 7.12502
rthumb -14.3733 -57.3672
lclavicle -1.26725e-015 -1.70955e-014
lhumerus -27.0657 -6.76364 88.5473
lradius 59.5506
lwrist -20.2703
lhand -33.1331 -38.2212
lfingers 7.12502
lthumb -6.34267 -8.33612
rfemur -16.4036 1.04252 8.49458
rtibia 43.4137
rfoot -22.9707 -19.1817
rtoes -9.87922
lfemur -13.1042 2.84939 -10.1391
ltibia 36.3896
lfoot -27.0568 22.5271
ltoes -34.7776
40
root 9.18475 16.0295 -0.121762 -90.2689 -88.4101 90.3407
lowerback -7.48481 0.233844 -1.44031
upperback 4.15875 0.555203 -1.44378
thorax 8.60483 0.220608 -0.638402
lowerneck -4.06362 0.197777 -0.262608
upperneck 30.2666 -1.89346 3.23772
head 10.3387 -1.01841 0.93132
rclavicle -1.31695e-015 -7.95139e-016
rhumerus -29.2343 3.44273 -91.5474
rradius 60.7629
rwrist 12.066
rhand -41.4705 -27.7928
rfingers 7.12502
rthumb -14.385 -57.2744
lclavicle -1.31695e-015 -7.95139e-016
lhumerus -27.0881 -6.84775 88.547
lradius 59.5558
lwrist -20.2468
lhand -33.1145 -38.1548
lfingers 7.12502
lthumb -6.32476 -8.26926
rfemur -16.3984 1.04671 8.50039
rtibia 43.406
rfoot -22.9487 -19.1885
rtoes -9.91883
lfemur -13.0981 2.84672 -10.1353
ltibia 36.3917
lfoot -27.0608 22.5596
ltoes -34.8428
41
root 9.18522 16.0297 -0.121483 -90.8661 -88.4053 90.9303
lowerback -7.48045 0.268116 -1.40282
upperback 4.15036 0.59911 -1.47595
thorax 8.59398 0.245229 -0.687014
lowerneck -4.0298 0.172798 -0.235787
upperneck 30.2641 -1.94343 3.26935
head 10.3327 -1.03601 0.933069
rclavicle -1.2424e-015 1.59028e-015
rhumerus -29.2628 3.3442 -91.5664
rradius 60.7443
rwrist 12.0733
rhand -41.4936 -27.5713
rfingers 7.12502
rthumb -14.4073 -57.0513
lclavicle -1.2424e-015 1.59028e-015
lhumerus -27.1291 -6.96597 88.5364
lradius 59.569
lwrist -20.222
lhand -33.0904 -38.0871
lfingers 7.12502
lthumb -6.30153 -8.2008
rfemur -16.3951 1.0401 8.49404
rtibia 43.3997
rfoot -22.9176 -19.1986
rtoes -10.0181
lfemur -13.0923 2.8456 -10.1423
ltibia 36.393
lfoot -27.0695 22.5855
ltoes -34.8832
42
root 9.1855 16.0297 -0.12118 -91.1727 -88.3912 91.2322
lowerback -7.48045 0.313229 -1.35524
upperback 4.13718 0.657937 -1.52854
thorax 8.58108 0.278332 -0.760683
lowerneck -3.99348 0.132989 -0.201075
upperneck 30.2692 -2.02317 3.32254
head 10.33 -1.06444 0.938236
rclavicle 3.72721e-016 4.37326e-015
rhumerus -29.3006 3.18941 -91.5989
rradius 60.7219
rwrist 12.0838
rhand -41.5334 -27.2766
rfingers 7.12502
rthumb -14.4456 -56.7538
lclavicle 3.72721e-016 4.37326e-015
lhumerus -27.1733 -7.13364 88.5133
lradius 59.5728
lwrist -20.203
lhand -33.0667 -38.0213
lfingers 7.12502
lthumb -6.2786 -8.13435
rfemur -16.3932 1.02387 8.4753
rtibia 43.3956
rfoot -22.8907 -19.2009
rtoes -10.1116
lfemur -13.0904 2.84648 -10.16
ltibia 36.3917
lfoot -27.0677 22.6049
ltoes -34.9054
43
root 9.18573 16.0297 -0.120999 -91.2198 -88.3767 91.2769
lowerback -7.48127 0.365269 -1.29879
upperback 4.12096 0.725711 -1.59056
thorax 8.5659 0.316598 -0.848007
lowerneck -3.95682 0.0860543 -0.159625
upperneck 30.2803 -2.1174 3.3847
head 10.33 -1.09797 0.944033
rclavicle 4.5969e-015 -1.19271e-014
rhumerus -29.3466 2.99269 -91.6361
rradius 60.7067
rwrist 12.1152
rhand -41.5849 -27.0238
rfingers 7.12502
rthumb -14.4953 -56.4974
lclavicle 4.5969e-015 -1.19271e-014
lhumerus -27.2109 -7.33048 88.4863
lradius 59.5608
lwrist -20.1958
lhand -33.0493 -37.9624
lfingers 7.12502
lthumb -6.26177 -8.07492
rfemur -16.3915 1.0135 8.456
rtibia 43.394
rfoot -22.8863 -19.1868
rtoes -10.0889
lfemur -13.0918 2.85278 -10.1777
ltibia 36.3868
lfoot -27.0438 22.619
ltoes -34.8991
